/* XPM */
static char *_206abdd16e441f4f0b89200ca29bd0c[] = {
/* columns rows colors chars-per-pixel */
"64 64 256 2 ",
"   c #1D2823",
".  c #46190C",
"X  c #472704",
"o  c #553507",
"O  c #552F0F",
"+  c #643702",
"@  c #693410",
"#  c #57322B",
"$  c #682A28",
"%  c #663528",
"&  c #6F2E36",
"*  c #6F191A",
"=  c #1D4539",
"-  c #554413",
";  c #6E4B0F",
":  c #525232",
">  c #6F532B",
",  c #76692B",
"<  c #676A21",
"1  c #0A3348",
"2  c #002D69",
"3  c #753540",
"4  c #36696C",
"5  c #265362",
"6  c #495C59",
"7  c #536F57",
"8  c #706E4B",
"9  c #517372",
"0  c #697571",
"q  c #635861",
"w  c #933309",
"e  c #A92A01",
"r  c #B12A00",
"t  c #AB3500",
"y  c #B33401",
"u  c #B43A04",
"i  c #B43619",
"p  c #9F2428",
"a  c #89500E",
"s  c #B76C13",
"d  c #895833",
"f  c #906D31",
"g  c #A77938",
"h  c #AF722F",
"j  c #9C601B",
"k  c #D7710E",
"l  c #E56D0A",
"z  c #E57415",
"x  c #E46F10",
"c  c #CE562E",
"v  c #993D4D",
"b  c #8D764D",
"n  c #AA7846",
"m  c #907870",
"M  c #9B5761",
"N  c #CF785D",
"B  c #719053",
"V  c #738C70",
"C  c #629669",
"Z  c #738D2C",
"A  c #B0940A",
"S  c #B6B905",
"D  c #B7AC11",
"F  c #8E8F35",
"G  c #A98D33",
"H  c #B3B230",
"J  c #989510",
"K  c #DA8806",
"L  c #DA9303",
"P  c #D98915",
"I  c #CF9613",
"U  c #E58904",
"Y  c #F98C07",
"T  c #E99B06",
"R  c #FD9C02",
"E  c #F89906",
"W  c #FA8E15",
"Q  c #E79918",
"!  c #F79617",
"~  c #E58A14",
"^  c #CDAF14",
"/  c #F7A308",
"(  c #E8A618",
")  c #F7A517",
"_  c #E7AF12",
"`  c #D89928",
"'  c #D89C36",
"]  c #CE932D",
"[  c #E69B27",
"{  c #F0962C",
"}  c #DAA42A",
"|  c #D9A536",
" . c #CBB131",
".. c #E8A329",
"X. c #E5A636",
"o. c #F2AD2A",
"O. c #B9C511",
"+. c #B6C32D",
"@. c #CCCB18",
"#. c #D0CC31",
"$. c #E7D637",
"%. c #E5E737",
"&. c #979848",
"*. c #8F8E51",
"=. c #AE8E4D",
"-. c #94A94D",
";. c #B6A857",
":. c #B2AE52",
">. c #8F8F6E",
",. c #A79B78",
"<. c #AD976A",
"1. c #92A974",
"2. c #A9A467",
"3. c #B1B072",
"4. c #D79C43",
"5. c #C99C50",
"6. c #C7A848",
"7. c #D8A547",
"8. c #C9A956",
"9. c #D6A858",
"0. c #CDB953",
"q. c #E7A847",
"w. c #EFB250",
"e. c #CFB16E",
"r. c #ECBC6F",
"t. c #DE9954",
"y. c #B5C94A",
"u. c #B6CC78",
"i. c #D9D646",
"p. c #CFCF51",
"a. c #E7D957",
"s. c #EAD353",
"d. c #DCE452",
"f. c #EBE857",
"g. c #F6EB5A",
"h. c #EDF459",
"j. c #FCF35C",
"k. c #F8F658",
"l. c #EEEE4A",
"z. c #D4D06D",
"x. c #F7C568",
"c. c #F0D272",
"v. c #EAE767",
"b. c #F4ED63",
"n. c #F9EC69",
"m. c #ECF565",
"M. c #FCF364",
"N. c #FEFB65",
"B. c #F4F26B",
"V. c #FDF36C",
"C. c #FDFB6B",
"Z. c #F5F765",
"A. c #E9E777",
"S. c #F9EA75",
"D. c #FDF473",
"F. c #FAF877",
"G. c #EAF576",
"H. c #D7E474",
"J. c #326387",
"K. c #1E5593",
"L. c #6A7C8B",
"P. c #56789D",
"I. c #3E77CE",
"U. c #688788",
"Y. c #779998",
"T. c #6F8F90",
"R. c #77AB92",
"E. c #548DB5",
"W. c #7094A8",
"Q. c #73AEB1",
"!. c #58919A",
"~. c #79C5B3",
"^. c #3B95E9",
"/. c #3B91EF",
"(. c #3EA7D7",
"). c #4F93D1",
"_. c #57A8D7",
"`. c #50ACD3",
"'. c #6FB3CF",
"]. c #4899E9",
"[. c #549BE9",
"{. c #4A92EF",
"}. c #48A5E8",
"|. c #56A7E7",
" X c #54B2EE",
".X c #6AB9EB",
"XX c #679CD6",
"oX c #68D7DA",
"OX c #74CFD2",
"+X c #58CEEB",
"@X c #70CEEE",
"#X c #5AE1F2",
"$X c #5DD7D6",
"%X c #8D9789",
"&X c #90AA93",
"*X c #B1AF91",
"=X c #869AA8",
"-X c #88A6A8",
";X c #8DB0B2",
":X c #AFB9AE",
">X c #AE9390",
",X c #CEB78D",
"<X c #E6A799",
"1X c #E8B7AC",
"2X c #C8A59A",
"3X c #95C494",
"4X c #B1C692",
"5X c #90C9B0",
"6X c #B8CBB4",
"7X c #CFC890",
"8X c #E7C997",
"9X c #F0D58D",
"0X c #F6E886",
"qX c #FAF685",
"wX c #FCE698",
"eX c #F0EE91",
"rX c #CFD0AF",
"tX c #E9D8A8",
"yX c #F1D7B4",
"uX c #FAE7A5",
"iX c #FAE7B8",
"pX c #F5F0B2",
"aX c #D8EDA7",
"sX c #8DBACB",
"dX c #A5BAC5",
"fX c #85BCE3",
"gX c #99C7C8",
"hX c #91CBD1",
"jX c #A9CBD5",
"kX c #B8D7D9",
"lX c #AECFCF",
"zX c #8ED2EE",
"xX c #B8D8E6",
"cX c #ACD3E9",
"vX c #88E6FC",
"bX c #97EAF2",
"nX c #B1EDF3",
"mX c #A4E1DA",
"MX c #CBD7CD",
"NX c #F3D9CC",
"BX c #D0E7D5",
"VX c #FCF6C7",
"CX c #FEFDDC",
"ZX c #F9F6D8",
"AX c #EFECCE",
"SX c #C7D9EA",
"DX c #D5F0F0",
"FX c #FDFEEC",
"GX c #FBF8E7",
"HX c #E9FBFA",
"JX c #FDFEF4",
"KX c #FEF5FD",
"LX c #FDFCFD",
"PX c #F6F8F9",
"IX c #EFF1EC",
"UX c #F2A8C6",
/* pixels */
"LXKXJXJXPXJXFXCXVXuXx.w.} ( W Y Y U l U U T K L K U U K P P A I ` I ` ] ` I P I L T T T L T L T ( _ _ o.$.x.wXCXLXLXPXHXHXPXKXKX",
"LXKXJXHXJXFXVX9X9.7.] }  .} ` ~ ......I } } } } ( Q ....I A ] D A A A A ] I I ^ I _ _ _ @.o.o.( _ o.o._ ^  .7.e.yXZXJXPXHXLXKXKX",
"LXJXIXJXFXiXr.X.) Q Q }  .6.;.8.0.:.:.3.:.:.:.:.H  .D A  .m.C.b.b.g.f.s.p.#.#.^ D D A A A D I I D ^ ^ ^ @.^ @. . .a.pXCXJXHXLXJX",
"LXPXJXCXiX6.] ..Q ..6.3.3.3X3X3X3X3X5X5X5X3X4X4Xz.F G p.Z.h.h.C.h.h.k.Z.M.C.Z.B.Z.C.Z.b.f.i.i.#.^ ^ ^ S A A I A _ _  .uXCXJXPXJX",
"KXLXGXuX` Q } 7.:.u.5X~.oXoXoXOXoXoXoXoXoXoXhX3XC :.d.f.#.$.l.l.N.Z.Z.k.j.Z.B.M.n.M.b.g.h.j.N.M.l.j.k.N.D.S.s.D ^ _ ^  .pXCXJXHX",
"PXJXiX7.) ( 6.3.3X5XoX#X#X#X$X#X#X#X#X#X#X$X~.C u.eXB.d.^ S S l.M.M.M.N.M.j.g.b.n.V.M.N.N.k.$.D O.D S +.p.S.qXs.A ^ _ o.7.pXIXLX",
"JXCXw.~ )  .V hX5XOXhXOXoXoXoX$X$X$X#XoXOX5XC -.y.S +.#.#.+.p.d.f.v.k.k.N.C.V.V.D.V.b.g.k.k.%.@.S @.O.O.S @.B.D.#.A ^ _ ^ x.VXHX",
"FX8X{ ! } 2.5XoXOXbXbXbXbXbXbXoXoX$XoXoXOXR.-.m.d.h.f.i.d.p.y.y. .H  .H  . .i.i.s.v.b.h.M.j.j.f.$.#.O.O.O.@.Z.F.F.#.A ^ _  .tXCX",
"ZXe.! Q :.R.~.vXbXbX@X+XOXOX@XbXbXoX+X@XOXR.B F.h.M.V.D.S.S.F.B.B.F.b.f.f.i.i.i.p.H 0.H H  .+.#.i.i.d.F.f.k.n.F.G.G.#.A I } e.VX",
"iX4.[ | 1.~.bXzXhX'.'.OXhXsXsXOXzXvX@X+XOXR.-.d.@.#.f.v.D.V.n.B.F.F.B.B.B.M.V.g.g.F.b.F.qXv.v.d.i. .p.H D D H H y.p.p.^ I ^ 0.uX",
"x.' X.6.R.OXmXhXnXDX;XV >.>.T.;XhXvXvX_.~.C +.O.S @.^ Z.D.g.N.h.F.qXA.v.D.F.M.N.j.g.M.B.n.G.F.F.k.h.D.M.j.j.D.G.H.z.p.0.A D  .x.",
"w.'  .:.~.bX5XSXHXHXBX,Xe.e.>XV Q.hXvXoX~.C +.O.S S ^ j.g.g.g.D.H qX;.;.A.:.g.g.k.k.C.D.D.F.A.v.C.k.g.N.k.k.B.B.Z.f.F.F.A ^ } w.",
"X.| 6.>.~.bXsXDXIXFX8Xe.r.r.5.,.>.Q.vXzX~.C y.#.S S i.h.g.n.D.v.&.*.b *.2.&.G.C.k.l.m.v.:.p.0XH G.v.F.b.C.M.B.D.@.S l.k.J D ..X.",
"{ ' :.1.hXvX'.gXrX,X9.9.7.4.t.e.B T.OXbX~.C z.m.d.d.h.j.V.V.S.:.-.*XMX6X>.*.A.B.Z.N.F.qXz.F &.:.eX< A.D.h.f.qXf.^ S $.f.J ^ o...",
"Q ] :.R.zX@X'.W.>.e.9.9.q.' 9.e.B R.~.bXR.B z.V.a.#.k.k.v.0X-.*XZXJXPXKXKXrXb eXm.F.eX3.*.>X*X,.8 f wXS.k.N.Z.g.S @.b.v.J ^ } Q ",
"I ] 3.R.vX@X_.;X>.8.9.6.7.4.8.b >.R.~.nX~.B z.n.H #.h.Z.F.p.2.GXHXlXL.L.=XMX7X-.eXeX*.*XIXIXPXJXGX*X2.eXk.h.Z.C.k.k.G.p.j  .o.U ",
"P 4.3.-X'.vXOXR.B <.5.4.=.=.G f < T.;XnXR.B H.F.f.s.j.B.a.F uXGXDXT.=X5 P.T.AX*.eX3.>XAXT.0 T.lXPXLX>.z.B.j.Z.M.M.j.m.+.F  ...T ",
"P 7.<.-X'.@X`.Q.Y.B G =.n n f , *.V zXcX5XB z.F.j.M.V.n.S.p.3.AXdXW.5 1 1 P.rX-.iX*.MXL.U.9 T.W.DXKXNX*.D.j.v.D.M.j.m.+.F :...~ ",
"L  .2.-X_.@XoXQ.!.6 b b > > f >.0 Y.bX'.Q.C H.h.k.j.B.B.n.0X9XrXMXW.4 1 = U.BX>.7X>.IXT.  1 5 '.;XJXVXG S.b.F.B.j.g.G.F F 6.[ K ",
"L ] 2.Y.`.+XvX'.Q.V >.b <.>X,.m %XcXvX_.R.B A.k.k.Z.B.F.V.S.9X*XHXU.;X-XW.%XGX>.7X,.MX0 1 1 J.XXlXAXe.:.H #.F.B.n.M.G.Z -.;...L ",
"K ..2.Y..X X@XbXhXW.V %XT.0 U.;XjXvX X`.Q.C v.k.k.m.m.F.n.S.e.rXPXHX;XW.;XHXrX- 8 8 IX-X-XQ.sXW.PX,Xz.S.S.v.B.B.N.Z.H.Z -.;.` K ",
"U X.2.Y._.|.XXXXzXcXsX=X;XsXzXbX@X.X`.`.Q.B a.k.h.Z.C.p.s.0.&.yXIXLXHXHXHXAXB 7X7X2.%XBX-XU.=XSXGX3.0XS.qXn.B.F.j.Z.u.B 2.;.} L ",
"k | <.-XfXzXzXfX_..XfXzXzXzX+X X_.|. X`.T.*.v.j.C.C.f.D.0.X ,Xm yXAXFXAXMX8 :.qXqXH.*.FXJXIXKXIXGX,XA.S.n.S.D.B.k.B.3.B 1.;.} L ",
"~ ' <.-XzXzX'.zX.X]. X|.`.|.`. X|.|.`.'.7 B n.g.V.B.k.b.S.o > ,X<.b *.B -.F z.B.B.v.< 2.AXGXJXPXNXb ;.S.n.V.F.v.k.b.1.V ,.<.} L ",
"l ..2.5X@X@X_.'.#X X X|. X|. X}.|._.E.5 *X&.A.n.n.V.j.M.0X@ % > 1XwXeXeXeXz. .S.n.p.:.z.F *.2.*.m 8Xf G a.M.B.G.l.j.*.V %X2.X.L ",
"Y [ 2.5X.X}.)._.@X}. X X[.}. X}.'.P.4 DXAXF v.V.S.V.j.b.qX, # % X =.eXeXuX0X0.qXS.6.c.eXqX7X7XiX,X@ X 0.n.j.G.G.k.f.B &X%X3.' L ",
"~ ] 2.-X@X.X.X@X`.`. X}. X X|._.J.W.HXFXNX&.A.V.V.n.M.b.qX&.# & %   - f 3.9X0X0X0X0XeX9XeX7X3., O # , c.j.N.m.m.k.p.B V %X<.X.K ",
"~ ' 2.R..X.XfX'.`.+X X}.}. X`.E.4 HXPXGXVX&.A.v.n.n.M.n.F.e.O & & 3 % 8 >Xb , < *., *.b < O O # : O n S.M.g.F.F.N.H 1.0 >.=.q.K ",
"K 4.3.T.).}.|.XX`.vX+X+X X].`.OX= MXIXKXZX=.H.m.M.M.M.M.M.S.> $ & $ $ m FXJX>XX m MXIX%XO # $ % # o wXS.V.j.m.m.v.H 6X&X0 <...U ",
"P ' 2.Y._.}.|.XX@X`.)..X}. XE.4 7 0 KXKXAX*.d.m.B.g.M.M.j.qXb O $ & & q NXKXm # >XKXKX>X# # v & # f 0XV.g.N.k.m.v.F BX6X: e.` U ",
"~ ' >.Y._.}.].{._.@X.X@X{.[.C V pXB q SX*XF z.m.i.d.Z.k.k.M.e.O & & 3 # . #   # 3 m 2Xq # % * $ O wXn.g.V.C.l.Z.z.&.AX6X8 =.{ U ",
"K 7.3.T._.]. X[.}. X].[.[.XX9 aXaX7 P.J.6 B d.m.+.+.N.k.k.g.qXd $ $ # & & & & 3 # & $ # % % $ @ <.wXM.N.b.m.C.m.0.2.IX:X8 5.X.K ",
"K | ,.T.}.}.].[.}.}.}.].[.E.C aX*.7 XX).Q.V p.Z.b.m.k.h.k.M.c.r.O # % 3 & p 3 & & $ & p $ $ % > qXB.f.l.k.N.Z.G.&.7XHX&Xb 5.q.z ",
"k | ,.W._.]._.}.}.].}.|.{._.4 V 6X0 !.).Q.C u.N.f.#.%.l.k.j.S.0Xf - . v M M 3 p $ v & & & $ - z.B.$.O.D #.j.n.A.&.aXHX9 >.=.' P ",
"T q.,.!.].^.].].].].{.).I.[.E.9 C 6XC U.W.U.y.l.^ S O.%.h.k.V.D.0X- > 2XUXUXM M <X2X3 & $ X z.S.b.@.O.S ^ k.D.A.&.AXDXP.>.<.q.~ ",
"k ' ,.W.[./.}.^.^.].{.K.K.{.[.).!.7 6XV 9 V y.h.^ D O.%.h.Z.Z.B.F.9X; 2XUXUX2XUX<X1X2X@ % z.A.F.C.D S S @.k.D.:.*.: 5 J.%X<.` K ",
"U 4.,.W.)./.{.^./.].).K.K.{.{.].).E.7 aXB < +.qXd.p.#.k.F.b.m.B.S.v.c., f <.1X,X1X<.n d c.S.n.M.V.$.O.@.%.k.F.&.,.7 P.XXL.,...L ",
"P 4.<.W.I.{.]././.].P.5 E.]./././.).9 : aX-.B y.z.u.p.z.A.0XA.G.qXqXA.H.e.n d d d *.;.S.S.V.V.g.n.Z.h.%.l.k.B.F &XP.[.{.T.,.} K ",
"k j d W.{.{.{.{.{.].K.2 I.).].^./.].(.5 aXy.: AXaXiXyX8X,X7X7X3.2.3.3.3.e.t.,X2Xz.7X0XF.V.g.M.C.V.D.d.+.%.k.p.-.V P./.).W.<.] U ",
"P j # q I.{.I.{.^.}.J.5 ).E.].^./.(.E.6 7Xz.: PXJXGXGXPXLXGXZXCXrX1.AX7Xd d d b 4X*X:.:.0.z.z.c.A.eXG.p.d.C.:.3.7 E.{.).!.,.X.K ",
"] ' <.= 2 I.XX).).E.5 J.`.(.).).).).E.7 F H.- rXNXAXKXIXKXKXKXGXGX6XV 2X<Xp v >X>X1.,.AXNXpXrXrX*X,Xu.3.;.z.F 1.9 E.).).C 2.[ U ",
"P ] 2.B J.K.P.XX'.'.1 5 `.'.fX.XfX'.9 3X3.7XO b b 8 m m m ,.*XrXrXMXMXyXv p p IX:XAXAXFXFXJXPXJXJXGXZXCXVX4X: C -X'._.'.R.;.[ U ",
"P | G 1.dXJ.1 ;X5XQ.4 U.hXfXzXsXsXgX8 aXaXpX> > > X X X o f b > > 3 b d i p p m :X6XNXyXNXZXIXPXKXJXJXGXGX,.8 V 5XhX'.'.1.;.[ U ",
"K | :.u.gX;X9 5 ~.gX= = sXjXsXsXgXgX&X8 B : : , G f g d a g f + . . . * p p p * > # 8 d b m m >.%X>X:X2XrX: %XT.5XgXzXgX*X5.[ U ",
"P ' 6.4XgXzXlX= = nX6 6 P.=XcXmXhXgXlXSXlXMXm 6 *.g G h h h h G n 5.h c w e w p % o X + g d o O > ; > b 8 X %X5XjXhXjXgX7X5.{ ~ ",
"P ` 6.*XkXdXgXY.= 6 9 0 = 0 gXgXjXjXjXdXSXcX=X  > f f n n n g h n d n h w w h g g n =.n n f d j ; ; ; g ; b 1.;XjXhXjX6Xe.| { z ",
"K [ 9.,XsXcXgXgXP.U.: 0 2X>XR.gXgXcXmXjXxXjXdXm 7 : . . + O - - > 8 d b b b b F n g g G h g n h h h G g o ,X>.;XjXjXdX6X6.} Q U ",
"P } 8.*XSXjXmXmXU.;X*XyX,.MX7 lXxX;X;XxXjXjXSXkXBX>.% d a + ; ; X > > % O - X - + ; ; a j j h h h h g d ; e.>.*X6XlXrX,X .( Q K ",
"Q ` 6.4XxXcXjXjX!.;X&XaXtXAX9 5XdX9 W.xXcXjXxXkXmX:X- ; a a a ; ; n e.,X7X,Xe.e.=.f + o + + O O + + + + G G G 2.,Xe.9.X.Q T T I ",
"I ..6.7XlXxX9 L.-X=X&X1.*X%X=XY.T.P.dXSXlXSXjXkXMX7X=.] { o.! ..| | q.7.' 5.5.6.7.4.4.w.4.4.q.4.q.4.q.X.| } ' 7.7.7.Q E E / ( P ",
"Q ` | ,XlXjXU.6 =XP.=X&X*X>X-X0 C -XkXkXkXkXMX7X9.' X.{ o.! R / / / T ( ( ( ( Q Q Q ) ) Y E / ) Q ( E T / ) U Q Q ) Y / T E Q { ",
"..' ' z.MXlXlX%X6 6 -XU.%X0 q q -XkXBXBXMXkXaXe.X.Q o.o.o.U R E / / / E ( T ) ) o./ T E E E E ) o.I E R Y ) ) E E E E / E T W q.",
"q.q.' e.xXcXMXkXdX6 -X6 # # 0 L.kXxXBXlXMXMXe.6.[ [ X.x.x.....Q Q ..[ ..` ` | X.n.X.[ X.[ ` X.x.S.q.o.W ! { { [ Q Q ..( T ) [ w.",
"r.] | 8.MXxXxXSXSX=XY.%Xm 2Xq L.xXxXkXkXMX7Xe.7.x.x.7.z.0.0.x.x.7.x.9.x.r.c.c.r.wXw.x.x.9.7.c.wXuXe.r.x.4.w.x.w.4.w.c.w.I ( [ r.",
"yX] { | 7XkXnXnXxXdXT.%X>X6X=XT.cXxXjXMX7Xe.t.x.wXtXeXuXtXiXtXtXtXpXiXtXyXpXiXtXiX8XiXiXtXtXyXiXNXiXiXNX8XuXtXiX9XuXpXuXX.` 7.wX",
"iX9.~ ..e.rX6XmXjXdXV ;X=XU.;XL.jXcXMXrXe.6.] 0XwX7XpXuXuXVX7XtX8XVXVXtXVXtXNXtXVXVXyX7XVXVX8XtXtXVXyXyX8XVX,XVXuXuXe.pXX.' 9.VX",
"CX8X' ~ | 8.rXrXSXdXU.;X;X;X!.;XkXMXrX,XX.[ q.x.c.r.c.S.r.x.9X9Xx.9X9X9Xr.wX9Xr.9Xr.9XwXe.r.wXwX6.p.wX9X9.c.uX9Xz.c.5.9Xw.' 8XZX",
"GXCX9.P ..| 8.7X<XMX0 %X&XR.7 rXrX7Xe.q.[ Q ` ` ` I ' | ] [ X.[ ` X.] ` ] 7.4.] | ] ` X.' ] | } _ I ] 7.` ' 7.] I I X.q.] e.ZXKX",
"LXZXiX=.P ..~ X.9.e.f , , < , 9Xe.7.` Q ! Q / T E T ! ! T E ! E E T T E T T T T E T U E / / L T / T T ! W E E Q / ) ~ w.=.iXGXKX",
"KXLXFXtXh K W { { ' ` X.} } | ' X.[ Q ! ! ! T R R R E ! / R E Y R R R R / E R / R / / R / R / / T / R R Y Y R / R W { s 9XFXKXLX",
"KXKXLXIX8Xh k x z { { { T ! ! ~ ! W ! W { ! Y Y Y W W W { W W W W W ! W ! W { W W W ! W W W W { Q { W W W W W Y P k s yXZXJXPXHX",
"KXKXKXLXGXyXn j c k x z k l z z l k x x z z l l x z x x z z x x x x z x z z z x z x z z z z z k z z x x x k s s a N NXGXZXPXLXHX",
"KXLXPXJXJXGXGX<Xb a @ w t r u r u u u y y y y y u u u t t y t y r y y t y t y y y r y r y y y e e r r i e w j f 1XIXLXKXJXGXLXPX",
"LXIXJXFXHXLXKXKXGXNX<Xt.c c i i e e e r r r r e e e e w e e t e r r e e e e e r r r r e r e e y i r c c N <XyXZXJXHXPXPXJXFXIXLX"
};
